HIERARCHY
ROOT Hips
{
	OFFSET 0.000000 35.082581 0.000000
	CHANNELS 6 Xposition Yposition Zposition Xrotation Yrotation Zrotation 
	JOINT Spine
	{
		OFFSET 0.000000 6.876099 0.125700
		CHANNELS 3 Xrotation Yrotation Zrotation
		JOINT Spine1
		{
			OFFSET 0.000000 5.730043 0.104720
			CHANNELS 3 Xrotation Yrotation Zrotation
			JOINT Spine1_split
			{
				OFFSET 0.000000 5.730043 0.104720
				CHANNELS 3 Xrotation Yrotation Zrotation
				JOINT Spine2
				{
					OFFSET 0.000000 5.730043 0.104720
					CHANNELS 3 Xrotation Yrotation Zrotation
					JOINT Neck
					{
						OFFSET 0.000000 10.314075 0.188496
						CHANNELS 3 Xrotation Yrotation Zrotation
						JOINT Head
						{
							OFFSET 0.000000 7.643700 -2.377400
							CHANNELS 3 Xrotation Yrotation Zrotation
							JOINT HeadTop_End
							{
								OFFSET 0.000000 43.788605 -13.619600
								CHANNELS 3 Xrotation Yrotation Zrotation
								End Site
								{
									OFFSET 0.000000 0.000000 0.000000
								}
							}
						}
					}
					JOINT LeftShoulder
					{
						OFFSET 2.196100 4.412489 0.087492
						CHANNELS 3 Xrotation Yrotation Zrotation
						JOINT LeftShoulder_split
						{
							OFFSET 2.196100 4.412489 0.087492
							CHANNELS 3 Xrotation Yrotation Zrotation
							JOINT LeftArm
							{
								OFFSET 8.771219 -2.981674 -0.026999
								CHANNELS 3 Xrotation Yrotation Zrotation
								JOINT LeftForeArm
								{
									OFFSET 8.512804 0.000000 -0.000000
									CHANNELS 3 Xrotation Yrotation Zrotation
									JOINT LeftHand
									{
										OFFSET 18.484802 0.000000 -0.000000
										CHANNELS 3 Xrotation Yrotation Zrotation
										JOINT LeftHandThumb1
										{
											OFFSET 2.499420 -1.158070 2.653252
											CHANNELS 3 Xrotation Yrotation Zrotation
											JOINT LeftHandThumb2
											{
												OFFSET 2.370079 -1.368366 1.368366
												CHANNELS 3 Xrotation Yrotation Zrotation
												JOINT LeftHandThumb3
												{
													OFFSET 2.676727 -1.545410 1.545409
													CHANNELS 3 Xrotation Yrotation Zrotation
													JOINT LeftHandThumb4
													{
														OFFSET 1.692226 -0.977005 0.977007
														CHANNELS 3 Xrotation Yrotation Zrotation
														End Site
														{
															OFFSET 0.000000 0.000000 0.000000
														}
													}
												}
											}
										}
										JOINT LeftHandIndex1
										{
											OFFSET 7.924831 -0.457527 2.345128
											CHANNELS 3 Xrotation Yrotation Zrotation
											JOINT LeftHandIndex2
											{
												OFFSET 3.643303 0.000000 0.000000
												CHANNELS 3 Xrotation Yrotation Zrotation
												JOINT LeftHandIndex3
												{
													OFFSET 3.810799 0.000000 0.000000
													CHANNELS 3 Xrotation Yrotation Zrotation
													JOINT LeftHandIndex4
													{
														OFFSET 2.403702 0.000000 0.000000
														CHANNELS 3 Xrotation Yrotation Zrotation
														End Site
														{
															OFFSET 0.000000 0.000000 0.000000
														}
													}
												}
											}
										}
										JOINT LeftHandMiddle1
										{
											OFFSET 8.563995 0.000000 -0.000000
											CHANNELS 3 Xrotation Yrotation Zrotation
											JOINT LeftHandMiddle2
											{
												OFFSET 3.861618 0.000000 0.000000
												CHANNELS 3 Xrotation Yrotation Zrotation
												JOINT LeftHandMiddle3
												{
													OFFSET 3.701603 0.000000 0.000000
													CHANNELS 3 Xrotation Yrotation Zrotation
													JOINT LeftHandMiddle4
													{
														OFFSET 2.322544 0.000000 0.000000
														CHANNELS 3 Xrotation Yrotation Zrotation
														End Site
														{
															OFFSET 0.000000 0.000000 0.000000
														}
													}
												}
											}
										}
										JOINT LeftHandRing1
										{
											OFFSET 8.426460 -0.424637 -3.286992
											CHANNELS 3 Xrotation Yrotation Zrotation
											JOINT LeftHandRing2
											{
												OFFSET 3.126408 0.000000 0.000000
												CHANNELS 3 Xrotation Yrotation Zrotation
												JOINT LeftHandRing3
												{
													OFFSET 3.085026 0.000000 0.000000
													CHANNELS 3 Xrotation Yrotation Zrotation
													JOINT LeftHandRing4
													{
														OFFSET 1.644005 0.000000 0.000000
														CHANNELS 3 Xrotation Yrotation Zrotation
														End Site
														{
															OFFSET 0.000000 0.000000 0.000000
														}
													}
												}
											}
										}
									}
								}
							}
						}
					}
					JOINT RightShoulder
					{
						OFFSET -2.196100 4.412496 0.070690
						CHANNELS 3 Xrotation Yrotation Zrotation
						JOINT RightShoulder_split
						{
							OFFSET -2.196100 4.412496 0.070690
							CHANNELS 3 Xrotation Yrotation Zrotation
							JOINT RightArm
							{
								OFFSET -8.771282 -2.981682 -0.094208
								CHANNELS 3 Xrotation Yrotation Zrotation
								JOINT RightForeArm
								{
									OFFSET -8.494598 0.000000 0.000000
									CHANNELS 3 Xrotation Yrotation Zrotation
									JOINT RightHand
									{
										OFFSET -18.483803 0.000000 0.000001
										CHANNELS 3 Xrotation Yrotation Zrotation
										JOINT RightHandThumb1
										{
											OFFSET -2.527351 -1.008072 2.575253
											CHANNELS 3 Xrotation Yrotation Zrotation
											JOINT RightHandThumb2
											{
												OFFSET -2.321518 -1.340328 1.340329
												CHANNELS 3 Xrotation Yrotation Zrotation
												JOINT RightHandThumb3
												{
													OFFSET -2.657753 -1.534454 1.534455
													CHANNELS 3 Xrotation Yrotation Zrotation
													JOINT RightHandThumb4
													{
														OFFSET -1.807510 -1.043568 1.043567
														CHANNELS 3 Xrotation Yrotation Zrotation
														End Site
														{
															OFFSET 0.000000 0.000000 0.000000
														}
													}
												}
											}
										}
										JOINT RightHandIndex1
										{
											OFFSET -8.811420 0.015533 2.887987
											CHANNELS 3 Xrotation Yrotation Zrotation
											JOINT RightHandIndex2
											{
												OFFSET -3.537502 0.000000 0.000000
												CHANNELS 3 Xrotation Yrotation Zrotation
												JOINT RightHandIndex3
												{
													OFFSET -3.356201 0.000000 0.000000
													CHANNELS 3 Xrotation Yrotation Zrotation
													JOINT RightHandIndex4
													{
														OFFSET -1.933098 0.000000 0.000000
														CHANNELS 3 Xrotation Yrotation Zrotation
														End Site
														{
															OFFSET 0.000000 0.000000 0.000000
														}
													}
												}
											}
										}
										JOINT RightHandMiddle1
										{
											OFFSET -8.178135 0.000000 0.000000
											CHANNELS 3 Xrotation Yrotation Zrotation
											JOINT RightHandMiddle2
											{
												OFFSET -3.901302 0.000000 0.000000
												CHANNELS 3 Xrotation Yrotation Zrotation
												JOINT RightHandMiddle3
												{
													OFFSET -3.909599 0.000000 0.000000
													CHANNELS 3 Xrotation Yrotation Zrotation
													JOINT RightHandMiddle4
													{
														OFFSET -2.376003 0.000000 0.000000
														CHANNELS 3 Xrotation Yrotation Zrotation
														End Site
														{
															OFFSET 0.000000 0.000000 0.000000
														}
													}
												}
											}
										}
										JOINT RightHandRing1
										{
											OFFSET -7.559013 0.014137 -2.865403
											CHANNELS 3 Xrotation Yrotation Zrotation
											JOINT RightHandRing2
											{
												OFFSET -3.449306 0.000000 0.000000
												CHANNELS 3 Xrotation Yrotation Zrotation
												JOINT RightHandRing3
												{
													OFFSET -3.362106 0.000000 0.000000
													CHANNELS 3 Xrotation Yrotation Zrotation
													JOINT RightHandRing4
													{
														OFFSET -2.076401 0.000000 0.000000
														CHANNELS 3 Xrotation Yrotation Zrotation
														End Site
														{
															OFFSET 0.000000 0.000000 0.000000
														}
													}
												}
											}
										}
									}
								}
							}
						}
					}
				}
			}
		}
	}
	JOINT LeftUpLeg
	{
		OFFSET 10.205400 -3.823500 0.155100
		CHANNELS 3 Xrotation Yrotation Zrotation
		JOINT LeftLeg
		{
			OFFSET 0.708757 -12.982077 0.567790
			CHANNELS 3 Xrotation Yrotation Zrotation
			JOINT LeftFoot
			{
				OFFSET -0.708756 -10.717838 -2.184338
				CHANNELS 3 Xrotation Yrotation Zrotation
				JOINT LeftToeBase
				{
					OFFSET 0.108149 -7.191104 7.560241
					CHANNELS 3 Xrotation Yrotation Zrotation
					JOINT LeftToe_End
					{
						OFFSET 0.070230 0.081724 4.490308
						CHANNELS 3 Xrotation Yrotation Zrotation
						End Site
						{
							OFFSET 0.000000 0.000000 0.000000
						}
					}
				}
			}
		}
	}
	JOINT RightUpLeg
	{
		OFFSET -10.205400 -3.823500 0.005500
		CHANNELS 3 Xrotation Yrotation Zrotation
		JOINT RightLeg
		{
			OFFSET -0.708756 -12.982134 0.610632
			CHANNELS 3 Xrotation Yrotation Zrotation
			JOINT RightFoot
			{
				OFFSET 0.708754 -10.717769 -1.945823
				CHANNELS 3 Xrotation Yrotation Zrotation
				JOINT RightToeBase
				{
					OFFSET -0.108140 -7.191069 7.372968
					CHANNELS 3 Xrotation Yrotation Zrotation
					JOINT RightToe_End
					{
						OFFSET -0.070227 0.081735 4.479403
						CHANNELS 3 Xrotation Yrotation Zrotation
						End Site
						{
							OFFSET 0.000000 0.000000 0.000000
						}
					}
				}
			}
		}
	}
}
MOTION
Frames: 5
Frame Time: 0.016667
-0.269109 28.599316 -0.034309 3.000809 -58.172195 6.374288 11.189898 0.063101 -2.592037 8.434583 0.027696 -5.592313 0.000000 0.000000 0.000000 8.457052 0.027882 -5.591869 -21.555739 25.063379 12.062608 -0.294015 25.465834 -3.208976 0.000000 0.000000 -0.000000 -6.221672 -11.503796 -4.023835 0.000000 0.000000 0.000000 -23.061673 9.569069 -36.639727 0.046310 -43.170836 -0.011002 22.743579 -5.684992 15.978959 -1.064236 -7.954922 8.490088 2.373394 19.986102 -2.038327 0.808183 1.237788 2.631732 -0.000000 -0.000004 -0.000002 13.340889 -1.006653 10.682296 -0.167596 0.303421 -31.105665 -0.143384 0.303614 -32.256258 0.000002 0.000000 -0.000002 8.495434 -0.329518 -0.915316 0.231521 0.661202 -29.901807 0.444096 0.213441 -44.357058 0.000000 -0.000001 0.000000 6.111746 3.150916 -16.210945 0.047075 0.322412 -30.125451 0.408790 0.818960 -42.140638 -0.000000 0.000001 0.000002 -5.488237 10.658252 2.466542 0.000000 0.000000 0.000000 -41.473168 -26.756168 30.079467 24.953744 111.863916 -23.306714 -8.702486 12.422800 -9.802174 0.264982 10.061098 -10.888486 1.383808 -17.412876 3.016267 3.342363 -13.253729 -8.262772 -0.000003 0.000002 -0.000000 19.443595 11.174426 -13.340189 -0.118675 -0.322693 18.035617 -0.089876 -0.286618 23.256581 0.000001 0.000001 -0.000000 4.320451 2.436986 -4.811720 0.349126 -0.461262 26.890310 0.467517 0.154053 39.044869 0.000000 -0.000000 0.000000 -7.005618 -10.695125 5.719847 0.111859 -0.089199 26.155911 0.451284 -0.473530 33.265043 0.000002 -0.000000 0.000000 -37.006921 4.719517 33.439585 48.223362 -12.858494 -11.597245 -12.623433 -0.319622 -14.395966 -0.327603 1.238434 0.837253 0.000000 -0.000004 -0.000000 -31.642477 -2.223364 -36.223410 60.431178 9.463280 -7.242492 -30.088786 -4.049702 28.253340 -0.322747 -0.997313 -0.837192 0.000000 -0.000001 -0.000000 
-0.267196 28.599705 -0.024991 3.024263 -58.141856 6.393391 11.189931 0.061899 -2.595197 8.434584 0.027699 -5.592324 0.000000 0.000000 0.000000 8.457050 0.027867 -5.591862 -21.547789 25.033951 12.079129 -0.272048 25.428506 -3.263955 -0.000000 0.000000 0.000001 -6.224968 -11.506077 -4.040174 0.000000 0.000000 0.000000 -23.270321 9.617864 -36.667871 0.069781 -43.129523 0.031141 23.501487 -5.369461 16.129545 -1.038547 -7.796635 8.549045 2.420509 20.133357 -1.982843 0.844449 1.387013 2.703122 -0.000002 -0.000002 -0.000000 13.341391 -1.007238 10.512645 -0.167407 0.303523 -31.275368 -0.142755 0.303450 -32.425968 -0.000001 0.000001 -0.000001 8.492711 -0.327836 -1.084983 0.232456 0.661761 -30.071513 0.445117 0.213761 -44.526748 0.000002 0.000001 0.000000 6.109951 3.152857 -16.380452 0.047140 0.323613 -30.295174 0.410499 0.818863 -42.310365 0.000000 -0.000001 -0.000001 -5.494054 10.657924 2.495501 0.000000 0.000000 0.000000 -41.054443 -26.626313 30.531612 28.810097 112.648268 -27.515642 -7.502664 11.836827 -10.784956 0.243488 10.220468 -10.828466 1.330424 -17.266324 3.075598 3.320064 -13.102347 -8.195418 -0.000003 0.000000 -0.000002 19.443320 11.174231 -13.513172 -0.118817 -0.322585 17.863219 -0.090563 -0.286636 23.084175 -0.000000 0.000003 0.000003 4.323241 2.438523 -4.984184 0.348172 -0.460563 26.717938 0.466443 0.154495 38.872434 -0.000003 0.000001 -0.000000 -7.004222 -10.693738 5.546727 0.111881 -0.088043 25.983464 0.449554 -0.473389 33.092659 -0.000000 0.000000 -0.000001 -37.047786 4.716245 33.413965 48.248887 -12.875834 -11.602238 -12.632200 -0.324957 -14.358661 -0.327605 1.238479 0.837240 0.000000 0.000000 -0.000000 -31.605830 -2.235086 -36.248849 60.381502 9.444463 -7.238228 -30.079187 -4.060986 28.292030 -0.322730 -0.997430 -0.837176 0.000000 -0.000000 -0.000000 
-0.259702 28.601158 0.001027 3.045402 -58.111065 6.411918 11.189984 0.059241 -2.604734 8.427927 0.021800 -5.590529 0.000000 0.000000 0.000000 8.450540 0.024345 -5.590736 -21.522823 24.948439 12.125789 -0.210773 25.320599 -3.422936 -0.000000 -0.000000 0.000001 -6.234571 -11.512575 -4.088034 0.000000 0.000000 0.000000 -23.549896 9.594472 -36.642572 0.138481 -42.979283 0.153743 24.249767 -5.074753 16.216155 -1.011776 -7.630836 8.610729 2.469883 20.287590 -1.924800 0.882248 1.543337 2.777799 -0.000001 0.000001 0.000002 13.341957 -1.007899 10.334942 -0.167222 0.303600 -31.453066 -0.142108 0.303256 -32.603659 0.000002 0.000001 -0.000000 8.489887 -0.326096 -1.262663 0.233439 0.662286 -30.249286 0.446218 0.214092 -44.704432 0.000002 -0.000000 -0.000000 6.109442 3.154882 -16.558100 0.047224 0.324728 -30.472851 0.412281 0.818762 -42.488093 0.000001 -0.000000 0.000000 -5.511176 10.663454 2.580773 0.000000 0.000000 0.000000 -40.669439 -26.535553 30.926598 30.091867 112.878472 -29.366303 -7.446027 11.442779 -11.863742 0.220546 10.390403 -10.764399 1.272164 -17.106776 3.140224 3.296349 -12.942774 -8.124413 0.000003 0.000001 0.000002 19.443044 11.174034 -13.701402 -0.119009 -0.322432 17.675433 -0.091322 -0.286685 22.896490 0.000001 0.000001 -0.000004 4.326283 2.440250 -5.171990 0.347178 -0.459883 26.530164 0.465308 0.155044 38.684743 0.000001 -0.000000 -0.000000 -7.002679 -10.692179 5.358384 0.111899 -0.086788 25.795765 0.448882 -0.472375 32.904908 -0.000003 0.000000 -0.000000 -37.090943 4.719517 33.354836 48.331624 -12.895807 -11.615735 -12.694643 -0.329416 -14.276440 -0.327627 1.238444 0.837254 0.000000 0.000001 0.000000 -31.537517 -2.253249 -36.323028 60.251414 9.445818 -7.225333 -30.022561 -4.070705 28.369925 -0.322756 -0.997404 -0.837209 0.000000 0.000003 0.000000 
-0.247041 28.603703 0.042615 3.065936 -58.080193 6.431000 11.189789 0.051235 -2.619455 8.417025 0.011621 -5.587464 0.000000 0.000000 0.000000 8.439826 0.017450 -5.588562 -21.483274 24.810481 12.200240 -0.116153 25.146472 -3.675490 -0.000000 -0.000001 -0.000000 -6.250116 -11.523044 -4.165726 0.000000 0.000000 0.000000 -23.890547 9.502021 -36.578907 0.247200 -42.732317 0.348585 24.987923 -4.799921 16.250149 -0.984049 -7.458108 8.674853 2.521164 20.448132 -1.864323 0.921424 1.706130 2.855440 -0.000003 0.000002 -0.000000 13.342522 -1.008593 10.149945 -0.167030 0.303738 -31.638082 -0.141415 0.303271 -32.788719 -0.000002 0.000000 -0.000001 8.486896 -0.324308 -1.447679 0.234525 0.663173 -30.434298 0.447396 0.214384 -44.889485 -0.000000 -0.000000 -0.000001 6.108896 3.157024 -16.743044 0.047340 0.325775 -30.657919 0.414128 0.818599 -42.673127 0.000000 0.000001 0.000001 -5.532791 10.672743 2.720153 0.000000 0.000000 0.000000 -40.331820 -26.475734 31.254082 31.604416 113.060839 -31.458093 -7.371038 11.217582 -13.032112 0.196110 10.570067 -10.696621 1.209431 -16.935282 3.209924 3.271340 -12.775570 -8.049974 0.000000 -0.000000 0.000001 19.442726 11.173817 -13.903696 -0.119175 -0.322243 17.473495 -0.092137 -0.286667 22.694490 -0.000001 -0.000002 -0.000001 4.329543 2.442079 -5.373967 0.346098 -0.458882 26.328272 0.464146 0.155563 38.482775 -0.000000 0.000001 0.000001 -7.000957 -10.690059 5.156144 0.111895 -0.085423 25.593829 0.448155 -0.471315 32.702946 -0.000005 -0.000001 -0.000001 -37.135950 4.730441 33.263803 48.465383 -12.917074 -11.636715 -12.807061 -0.333269 -14.149703 -0.327662 1.238432 0.837260 0.000000 0.000002 0.000000 -31.438275 -2.276903 -36.440357 60.043401 9.462052 -7.204260 -29.921481 -4.078738 28.484151 -0.322712 -0.997429 -0.837190 0.000000 0.000002 -0.000000 
-0.229606 28.607422 0.098634 3.087548 -58.049546 6.451776 11.189563 0.040551 -2.639562 8.401981 -0.002263 -5.583280 0.000000 0.000000 0.000000 8.425055 0.008615 -5.583554 -21.431262 24.624157 12.298795 0.012598 24.910345 -4.012512 -0.000000 -0.000000 -0.000001 -6.271315 -11.537097 -4.271435 0.000000 0.000000 0.000000 -24.278467 9.356742 -36.480102 0.390038 -42.425560 0.606448 25.720250 -4.531561 16.233908 -0.955444 -7.279241 8.741186 2.577666 20.612461 -1.800864 0.961751 1.874814 2.935774 -0.000004 -0.000004 0.000001 13.343096 -1.009290 9.958327 -0.166758 0.303905 -31.829815 -0.140732 0.303285 -32.980405 -0.000000 -0.000001 0.000002 8.483861 -0.322374 -1.639331 0.235566 0.663927 -30.626056 0.448545 0.214990 -45.081178 -0.000002 0.000000 -0.000001 6.108298 3.159234 -16.934634 0.047437 0.326834 -30.849594 0.416069 0.818438 -42.864853 0.000000 -0.000000 -0.000000 -5.562375 10.685560 2.910986 0.000000 0.000000 0.000000 -40.035420 -26.442469 31.521296 33.383420 113.217400 -33.826211 -7.264149 11.150077 -14.283798 0.170368 10.758731 -10.625410 1.142353 -16.752740 3.284161 3.245081 -12.601430 -7.972423 -0.000003 0.000001 -0.000002 19.442437 11.173607 -14.119050 -0.119380 -0.322067 17.258520 -0.092956 -0.286761 22.479498 -0.000001 0.000001 0.000004 4.333043 2.444046 -5.589092 0.344939 -0.457858 26.113217 0.462860 0.156142 38.267808 -0.000002 0.000001 0.000000 -6.999167 -10.687692 4.940932 0.111363 -0.083998 25.378813 0.447422 -0.470114 32.487966 0.000003 -0.000001 -0.000001 -37.182368 4.748814 33.143124 48.644699 -12.938545 -11.664046 -12.965158 -0.337224 -13.983203 -0.327637 1.238443 0.837241 0.000000 -0.000006 0.000000 -31.311708 -2.305921 -36.597578 59.761765 9.493015 -7.175284 -29.776647 -4.084617 28.633621 -0.322754 -0.997347 -0.837178 0.000000 -0.000001 -0.000000 
